PathFileType	4	(x/y/z)	TRC_MarkerData\Passive\Passive_Pref0007.trc
DataRate	CameraRate	NumFrames	NumMarkers	Units	OrigDataRate	OrigDataStartFrame	OrigNumFrames
240	240	11	50	mm	240	193	256
Frame#	Time	R_AC			L_AC			HEAD			STERN			L_IC			R_IC			L_ASIS			R_ASIS			L_GT			R_GT			L_PSIS			R_PSIS			SACRAL			L_LAT_KNEE			L_MED_KNEE			R_LAT_KNEE			R_MED_KNEE			L_LAT_ANK			L_MED_ANK			R_LAT_ANK			R_MED_ANK			L_THIGH_PROX_POST			L_THIGH_PROX_ANT			L_THIGH_DIST_ANT			L_THIGH_DIST_POST			R_THIGH_PROX_POST			R_THIGH_PROX_ANT			R_THIGH_DIST_ANT			R_THIGH_DIST_POST			L_SHANK_PROX_POST			L_SHANK_PROX_ANT			L_SHANK_DIST_ANT			L_SHANK_DIST_POST			R_SHANK_PROX_POST			R_SHANK_PROX_ANT			R_SHANK_DIST_ANT			R_SHANK_DIST_POST			L_HEEL_LAT			L_HEEL_SUP			L_HEEL_MED			R_HEEL_LAT			R_HEEL_SUP			R_HEEL_MED			L_1ST_MET			L_5TH_MET			L_TOE			R_1ST_MET			R_5TH_MET			R_TOE			C7			
		X1	Y1	Z1	X2	Y2	Z2	X3	Y3	Z3	X4	Y4	Z4	X5	Y5	Z5	X6	Y6	Z6	X7	Y7	Z7	X8	Y8	Z8	X9	Y9	Z9	X10	Y10	Z10	X11	Y11	Z11	X12	Y12	Z12	X13	Y13	Z13	X14	Y14	Z14	X15	Y15	Z15	X16	Y16	Z16	X17	Y17	Z17	X18	Y18	Z18	X19	Y19	Z19	X20	Y20	Z20	X21	Y21	Z21	X22	Y22	Z22	X23	Y23	Z23	X24	Y24	Z24	X25	Y25	Z25	X26	Y26	Z26	X27	Y27	Z27	X28	Y28	Z28	X29	Y29	Z29	X30	Y30	Z30	X31	Y31	Z31	X32	Y32	Z32	X33	Y33	Z33	X34	Y34	Z34	X35	Y35	Z35	X36	Y36	Z36	X37	Y37	Z37	X38	Y38	Z38	X39	Y39	Z39	X40	Y40	Z40	X41	Y41	Z41	X42	Y42	Z42	X43	Y43	Z43	X44	Y44	Z44	X45	Y45	Z45	X46	Y46	Z46	X47	Y47	Z47	X48	Y48	Z48	X49	Y49	Z49	X50	Y50	Z50	

193	0.80314	344.47	1504	418.74	372.64	1513.2	66.63	362.46	1794.7	251.14	395.01	1451.4	242.88	287.25	1076.5	91.04	320.92	1111.4	415.09	343.21	995.47	114.77	387.7	1016.1	385.73	256.37	910.12	71.621	319.01	950.26	450.74	177.71	1072.9	219.76	188.53	1084.9	311.18	167.52	1047.8	269.82	392.5	532.2	95.256	411.34	510.81	228.8	339.29	531.63	373.54	314.93	552.88	246.11	80.396	253.07	146.17	103.58	231.59	209.16	229.43	115.84	340.57	237.15	138.76	251.02	303.83	742.85	93.645	366.03	760.77	90.917	395.24	692.52	98.263	331.81	672.39	100.89	290.27	729.71	416.94	356.8	742.42	417.93	362.48	669.11	400.96	295.74	657.59	397.75	321.76	482.54	109.12	363.66	454.82	112.99	316.77	420.1	125.09	271.42	453.18	141.21	251.55	379.4	380.08	318.96	369.94	371.86	301.21	296.17	357.7	232.9	309.24	365.57	-18.146	253.88	190.37	9.7118	267.25	222.8	2.8555	232.49	249.9	152.43	52.492	314.53	149.06	81.73	282.39	162.07	56.245	248.16	142.05	101.31	166.36	76.908	142.19	87.4	172.66	78.48	108.68	370.87	55.618	249.99	340.14	46.328	356.27	424.6	52.384	298.74	283.67	1570.1	234.99
194	0.80732	350.88	1505.4	418.56	377.79	1514.2	66.314	368.53	1795.9	250.59	400.81	1452.6	242.63	292.55	1078	90.864	326.77	1112.2	414.88	348.57	997.07	114.39	393.21	1016.8	385.33	262.5	911.91	70.961	324.25	950.92	450.38	183.22	1074.2	219.64	194.19	1086.1	311.1	173.03	1049.1	269.71	403.44	534.62	95.08	421.07	514.66	229.14	340.8	532.17	373.5	316.66	553.39	245.99	96.004	250.01	143.75	118.77	229.49	207.28	230	116.53	340.42	237.76	139.37	250.89	312.01	744.85	92.732	374.03	763.5	90.525	404.02	695.56	98.049	340.8	674.69	100.14	293.43	730.79	416.66	360.17	742.87	417.62	365.13	669.48	400.71	298.28	658.58	397.51	333.45	483.76	108.31	375.87	456.8	113.04	329.44	421.35	124.73	283.2	453.7	139.96	252.56	380.1	379.96	319.94	370.49	371.75	302.07	296.76	357.64	233.78	309.99	365.46	-3.1199	249.34	186.52	24.046	263.5	219.35	17.537	228.83	246.63	152.68	53.446	314.52	149.43	82.661	282.34	162.31	57.087	248.12	160.34	99.554	165.97	95.497	138.62	85.752	192.18	76.854	108.87	371.05	55.551	249.93	340.3	46.417	356.21	424.77	52.225	298.68	289.3	1571.4	235.29
195	0.8115	357.25	1506.7	418.39	382.94	1515.2	66.008	374.6	1797	250.03	406.6	1453.8	242.4	297.87	1079.5	90.667	332.61	1113.1	414.64	353.97	998.65	113.99	398.72	1017.5	384.91	268.69	913.69	70.275	329.5	951.57	449.99	188.75	1075.4	219.47	199.84	1087.2	310.98	178.53	1050.4	269.57	414.15	537.09	94.975	430.68	518.4	229.49	342.3	532.74	373.46	318.38	553.91	245.85	111.73	246.82	141.34	134.14	227.22	205.37	230.59	117.24	340.26	238.39	140	250.74	320.16	746.84	91.845	382	766.21	90.207	412.73	698.58	97.921	349.73	676.98	99.439	296.61	731.88	416.37	363.55	743.33	417.28	367.79	669.87	400.43	300.86	659.58	397.27	344.99	484.98	107.56	387.94	458.82	113.12	342.02	422.6	124.37	294.91	454.15	138.78	253.57	380.83	379.84	320.92	371.07	371.65	302.94	297.38	357.58	234.65	310.76	365.34	12.104	244.54	182.75	38.57	259.49	215.97	32.456	224.86	243.38	152.94	54.454	314.5	149.83	83.644	282.28	162.55	57.977	248.08	178.84	97.76	165.4	114.24	135.07	84.018	211.87	75.303	108.85	371.24	55.484	249.87	340.45	46.51	356.16	424.94	52.07	298.62	294.89	1572.6	235.63
196	0.81569	363.6	1507.9	418.21	388.12	1516.1	65.712	380.66	1798.1	249.46	412.39	1455	242.18	303.2	1081	90.45	338.43	1113.9	414.39	359.4	1000.2	113.59	404.22	1018.2	384.48	274.91	915.45	69.566	334.75	952.2	449.57	194.29	1076.6	219.27	205.49	1088.3	310.82	184.02	1051.6	269.39	424.63	539.6	94.938	440.14	522.02	229.84	343.81	533.33	373.41	320.11	554.44	245.71	127.59	243.53	138.95	149.67	224.78	203.42	231.19	117.97	340.09	239.03	140.64	250.59	328.27	748.83	90.987	389.92	768.89	89.965	421.36	701.56	97.878	358.58	679.27	98.781	299.81	732.98	416.08	366.94	743.81	416.92	370.47	670.28	400.13	303.46	660.59	397.03	356.37	486.2	106.87	399.85	460.86	113.2	354.49	423.85	124.02	306.54	454.52	137.67	254.58	381.57	379.71	321.9	371.66	371.55	303.8	298.02	357.52	235.53	311.55	365.21	27.533	239.51	179.08	53.292	255.2	212.66	47.624	220.59	240.17	153.21	55.512	314.48	150.26	84.677	282.2	162.81	58.913	248.03	197.52	95.945	164.64	133.14	131.53	82.198	231.7	73.842	108.59	371.43	55.417	249.81	340.61	46.607	356.1	425.11	51.917	298.57	300.44	1573.8	236
197	0.81987	369.92	1509.2	418.04	393.3	1517.1	65.424	386.73	1799.2	248.9	418.18	1456.2	241.97	308.56	1082.4	90.212	344.24	1114.7	414.11	364.86	1001.8	113.19	409.72	1018.8	384.02	281.17	917.19	68.839	340.01	952.82	449.13	199.84	1077.8	219.02	211.13	1089.4	310.63	189.53	1052.8	269.17	434.87	542.14	94.965	449.47	525.49	230.2	345.32	533.93	373.34	321.84	554.98	245.55	143.57	240.14	136.58	165.37	222.18	201.45	231.81	118.72	339.91	239.69	141.31	250.43	336.34	750.81	90.164	397.79	771.54	89.801	429.92	704.52	97.918	367.36	681.53	98.171	303.04	734.1	415.79	370.34	744.29	416.53	373.18	670.7	399.8	306.1	661.61	396.8	367.58	487.41	106.24	411.6	462.93	113.28	366.85	425.1	123.67	318.08	454.82	136.64	255.58	382.33	379.57	322.89	372.28	371.45	304.67	298.68	357.45	236.41	312.36	365.07	43.173	234.27	175.51	68.218	250.67	209.43	63.05	216.03	237	153.5	56.616	314.46	150.71	85.756	282.12	163.07	59.892	247.98	216.4	94.121	163.68	152.18	128.04	80.293	251.68	72.484	108.1	371.62	55.35	249.74	340.77	46.708	356.04	425.28	51.768	298.51	305.97	1575	236.39
198	0.82405	376.21	1510.4	417.86	398.5	1518.1	65.146	392.79	1800.2	248.32	423.96	1457.4	241.78	313.94	1083.9	89.954	350.03	1115.5	413.81	370.36	1003.3	112.77	415.21	1019.5	383.55	287.46	918.91	68.097	345.26	953.43	448.67	205.4	1078.9	218.74	216.77	1090.4	310.4	195.03	1054	268.93	444.86	544.7	95.05	458.64	528.82	230.55	346.83	534.55	373.27	323.57	555.54	245.39	159.67	236.66	134.24	181.25	219.43	199.45	232.44	119.49	339.71	240.36	141.99	250.25	344.36	752.77	89.379	405.61	774.14	89.714	438.38	707.42	98.041	376.05	683.78	97.609	306.29	735.21	415.48	373.75	744.77	416.12	375.9	671.13	399.44	308.78	662.64	396.58	378.62	488.61	105.67	423.17	465.01	113.37	379.09	426.34	123.33	329.53	455.03	135.67	256.59	383.12	379.42	323.88	372.91	371.35	305.55	299.36	357.38	237.3	313.2	364.92	59.028	228.81	172.05	83.355	245.89	206.29	78.742	211.2	233.88	153.8	57.764	314.43	151.19	86.875	282.03	163.35	60.909	247.91	235.46	92.303	162.54	171.35	124.61	78.307	271.79	71.242	107.38	371.82	55.282	249.67	340.94	46.813	355.98	425.45	51.621	298.46	311.47	1576.2	236.79
199	0.82824	382.47	1511.6	417.7	403.72	1519.1	64.874	398.85	1801.3	247.75	429.74	1458.6	241.6	319.35	1085.3	89.677	355.82	1116.2	413.49	375.89	1004.7	112.34	420.7	1020.1	383.06	293.77	920.61	67.345	350.5	954.01	448.18	210.98	1080	218.42	222.41	1091.5	310.14	200.55	1055.1	268.65	454.59	547.26	95.188	467.65	531.99	230.9	348.35	535.18	373.18	325.3	556.1	245.22	175.9	233.1	131.92	197.29	216.55	197.43	233.09	120.27	339.5	241.05	142.69	250.07	352.32	754.71	88.636	413.37	776.7	89.705	446.75	710.28	98.244	384.65	685.99	97.096	309.58	736.33	415.17	377.17	745.27	415.69	378.64	671.58	399.07	311.5	663.68	396.36	389.49	489.77	105.16	434.57	467.11	113.46	391.21	427.57	122.98	340.89	455.15	134.78	257.61	383.92	379.27	324.88	373.56	371.25	306.42	300.06	357.3	238.19	314.05	364.76	75.104	223.17	168.7	98.707	240.89	203.24	94.704	206.11	230.81	154.12	58.949	314.4	151.68	88.031	281.93	163.64	61.961	247.83	254.7	90.507	161.22	190.66	121.24	76.244	292.03	70.126	106.44	372.02	55.215	249.6	341.11	46.923	355.93	425.62	51.477	298.41	316.96	1577.4	237.2
200	0.83242	388.71	1512.7	417.53	408.94	1520	64.61	404.91	1802.3	247.17	435.51	1459.7	241.43	324.79	1086.7	89.383	361.59	1116.9	413.15	381.45	1006.2	111.9	426.19	1020.7	382.55	300.1	922.27	66.587	355.74	954.58	447.67	216.56	1081.1	218.09	228.05	1092.5	309.84	206.09	1056.2	268.34	464.05	549.81	95.374	476.51	535	231.25	349.88	535.82	373.09	327.02	556.68	245.04	192.25	229.47	129.64	213.5	213.54	195.39	233.76	121.06	339.28	241.74	143.4	249.87	360.23	756.63	87.94	421.06	779.2	89.772	455.02	713.07	98.525	393.16	688.17	96.631	312.9	737.44	414.84	380.6	745.76	415.23	381.4	672.03	398.67	314.25	664.71	396.15	400.18	490.91	104.7	445.79	469.2	113.54	403.2	428.78	122.63	352.16	455.19	133.95	258.63	384.73	379.11	325.89	374.22	371.14	307.3	300.78	357.22	239.09	314.92	364.6	91.406	217.35	165.46	114.28	235.67	200.27	110.94	200.79	227.8	154.45	60.168	314.36	152.2	89.218	281.82	163.94	63.044	247.75	274.13	88.748	159.72	210.1	117.94	74.11	312.39	69.148	105.29	372.22	55.149	249.52	341.28	47.036	355.86	425.79	51.336	298.37	322.45	1578.5	237.6
201	0.8366	394.91	1513.8	417.36	414.18	1520.9	64.353	410.97	1803.2	246.59	441.28	1460.7	241.27	330.25	1088.1	89.073	367.35	1117.6	412.8	387.04	1007.6	111.44	431.68	1021.2	382.03	306.44	923.91	65.827	360.96	955.12	447.15	222.14	1082.2	217.72	233.69	1093.4	309.52	211.63	1057.3	268	473.26	552.34	95.6	485.19	537.83	231.6	351.41	536.47	372.99	328.75	557.27	244.86	208.73	225.79	127.38	229.87	210.41	193.34	234.44	121.86	339.05	242.45	144.13	249.66	368.08	758.51	87.291	428.7	781.64	89.912	463.18	715.79	98.88	401.57	690.3	96.214	316.25	738.55	414.51	384.05	746.26	414.76	384.19	672.48	398.24	317.05	665.75	395.93	410.7	492	104.3	456.81	471.28	113.62	415.07	429.96	122.27	363.32	455.14	133.18	259.66	385.56	378.95	326.9	374.89	371.04	308.19	301.5	357.13	240	315.79	364.42	107.94	211.38	162.33	130.07	230.25	197.37	127.45	195.26	224.85	154.79	61.416	314.32	152.74	90.432	281.7	164.25	64.151	247.65	293.74	87.041	158.08	229.67	114.74	71.914	332.86	68.32	103.94	372.43	55.084	249.45	341.45	47.154	355.8	425.97	51.197	298.32	327.95	1579.6	237.96
202	0.84078	401.09	1514.9	417.2	419.43	1521.9	64.101	417.03	1804.2	246.01	447.05	1461.8	241.11	335.75	1089.5	88.75	373.09	1118.3	412.43	392.65	1008.9	110.98	437.17	1021.8	381.51	312.78	925.51	65.068	366.16	955.64	446.6	227.73	1083.3	217.34	239.33	1094.4	309.17	217.2	1058.4	267.64	482.19	554.82	95.862	493.7	540.5	231.94	352.96	537.12	372.87	330.46	557.86	244.67	225.34	222.06	125.15	246.41	207.2	191.28	235.13	122.67	338.81	243.17	144.87	249.44	375.87	760.35	86.694	436.26	784	90.123	471.23	718.43	99.306	409.87	692.39	95.845	319.63	739.64	414.17	387.5	746.75	414.26	386.99	672.94	397.8	319.87	666.78	395.72	421.03	493.03	103.95	467.65	473.34	113.69	426.8	431.12	121.91	374.39	454.99	132.47	260.7	386.4	378.78	327.93	375.58	370.92	309.08	302.24	357.04	240.91	316.68	364.24	124.7	205.27	159.3	146.08	224.65	194.55	144.24	189.55	221.96	155.15	62.686	314.27	153.29	91.666	281.57	164.58	65.278	247.54	313.52	85.404	156.3	249.37	111.63	69.663	353.45	67.651	102.42	372.64	55.022	249.37	341.63	47.277	355.73	426.14	51.061	298.28	333.47	1580.6	238.3
203	0.84497	407.24	1515.9	417.04	424.69	1522.8	63.856	423.08	1805	245.43	452.82	1462.7	240.97	341.29	1090.8	88.415	378.81	1118.9	412.04	398.3	1010.2	110.5	442.66	1022.3	380.97	319.12	927.07	64.314	371.34	956.13	446.04	233.34	1084.3	216.93	244.97	1095.3	308.79	222.79	1059.4	267.24	490.86	557.25	96.151	502.04	542.99	232.27	354.53	537.77	372.76	332.18	558.47	244.48	242.07	218.3	122.95	263.12	203.9	189.22	235.83	123.5	338.56	243.89	145.61	249.21	383.58	762.14	86.147	443.76	786.29	90.399	479.16	720.98	99.8	418.07	694.42	95.524	323.05	740.72	413.81	390.97	747.24	413.74	389.82	673.4	397.34	322.72	667.81	395.51	431.19	494	103.64	478.28	475.38	113.75	438.4	432.23	121.55	385.36	454.74	131.8	261.75	387.24	378.6	328.96	376.26	370.8	309.98	302.98	356.94	241.84	317.58	364.06	141.69	199.04	156.36	162.33	218.89	191.8	161.31	183.67	219.12	155.51	63.976	314.21	153.86	92.915	281.44	164.91	66.42	247.43	333.47	83.852	154.4	269.2	108.62	67.369	374.15	67.15	100.75	372.85	54.962	249.29	341.81	47.404	355.67	426.31	50.927	298.24	339.01	1581.6	238.59
